# xmcd
#
# Track frame offsets: 
#        150
#        21222
#        39292
#        57264
#        75497
#        91377
#        110705
#        131013
#        149788
#        165940
#        182960
#        201038
#        218922
#        242317
#        311845
#        335554
#
# Disc length: 4700 seconds
#
# Revision: 27
# Processed by: cddbd v1.5.2PL0 Copyright (c) Steve Scherf et al.
# Submitted via: ExactAudioCopyFreeDBPlugin 1.0
#
DISCID=e2125a10
DTITLE=Joss Stone - Mind Body and Soul
DYEAR=2004
DGENRE=Soul
TTITLE0=Right To Be Wrong
TTITLE1=Jet Lag
TTITLE2=You Had Me
TTITLE3=Spoiled
TTITLE4=Don't Cha Wanna Ride
TTITLE5=Less Is More
TTITLE6=Security
TTITLE7=Young At Heart
TTITLE8=Snakes And Ladders
TTITLE9=Understand
TTITLE10=Don't Know How
TTITLE11=Torn And Tattered
TTITLE12=Killing Time
TTITLE13=Sleep Like A Child
TTITLE14=Holding Out For A Hero (Bonus Track)
TTITLE15=DATA
EXTD=
EXTT0=
EXTT1=
EXTT2=
EXTT3=
EXTT4=
EXTT5=
EXTT6=
EXTT7=
EXTT8=
EXTT9=
EXTT10=
EXTT11=
EXTT12=
EXTT13=
EXTT14=
EXTT15=
PLAYORDER=
